<?xml version="1.0" encoding="UTF-8"?>
<svg version="1.1" xmlns="http://www.w3.org/2000/svg" width="587" height="98">
  <path
    d="M0 0 C4.89936807 4.07162095 7.20696764 8.22212621 7.96875 14.5703125 C8.4673981 24.84246343 5.34912189 34.69116119 -1.375 42.48828125 C-9.78763747 50.98676196 -17.6360594 53.64676086 -29.4140625 53.796875 C-30.17831543 53.81089355 -30.94256836 53.82491211 -31.72998047 53.83935547 C-36.95866248 53.79518856 -40.67240751 52.92403152 -45.2890625 50.421875 C-47.2890625 47.421875 -47.2890625 47.421875 -47.04467773 45.4074707 C-46.81466064 44.64523193 -46.58464355 43.88299316 -46.34765625 43.09765625 C-45.96988037 41.81217896 -45.96988037 41.81217896 -45.58447266 40.50073242 C-45.3013623 39.58783447 -45.01825195 38.67493652 -44.7265625 37.734375 C-44.4486084 36.80278564 -44.1706543 35.87119629 -43.88427734 34.91137695 C-43.0339763 32.0767979 -42.16444245 29.24879921 -41.2890625 26.421875 C-41.03044434 25.57979492 -40.77182617 24.73771484 -40.50537109 23.87011719 C-39.12477453 19.37928484 -37.71959674 14.89704186 -36.2890625 10.421875 C-39.2590625 10.421875 -42.2290625 10.421875 -45.2890625 10.421875 C-45.11494098 5.98177623 -44.76455018 3.94375172 -41.7265625 0.609375 C-31.7700576 -6.59813171 -10.09269449 -6.48555819 0 0 Z M-18.2890625 8.421875 C-18.44987305 8.98994873 -18.61068359 9.55802246 -18.77636719 10.14331055 C-24.47361404 30.24418896 -24.47361404 30.24418896 -27.625 40.12109375 C-28.38149765 42.34301945 -28.38149765 42.34301945 -28.2890625 44.421875 C-21.95134291 44.39313251 -18.2311132 43.25846497 -13.50390625 38.9921875 C-11.98311481 37.35730201 -11.98311481 37.35730201 -12.2890625 34.421875 C-11.6290625 34.421875 -10.9690625 34.421875 -10.2890625 34.421875 C-8.25698602 27.84750991 -7.35260602 21.8698056 -10.18359375 15.3671875 C-11.63650196 12.74433447 -13.16709515 10.54384235 -15.2890625 8.421875 C-16.2790625 8.421875 -17.2690625 8.421875 -18.2890625 8.421875 Z "
    transform="translate(413.2890625,20.578125)" />
  <path
    d="M0 0 C1.08764648 -0.02416992 1.08764648 -0.02416992 2.19726562 -0.04882812 C9.46970546 -0.05536221 15.24567366 2.14758298 20.5625 7.3125 C23.16061553 11.64269255 23.20130837 16.40964573 22.5625 21.3125 C20.27078705 29.09911558 15.79703393 35.78249187 8.625 39.75 C4.87680037 41.43668983 1.68269548 41.73292811 -2.4375 41.3125 C-2.9325 40.8175 -2.9325 40.8175 -3.4375 40.3125 C-3.67984375 40.98796875 -3.9221875 41.6634375 -4.171875 42.359375 C-6.34089634 48.13230873 -8.07873139 51.99610785 -13.25 55.5625 C-16.36652101 56.63102149 -19.17336043 56.49726262 -22.4375 56.3125 C-23.4375 55.3125 -23.4375 55.3125 -23.734375 52.015625 C-23.65472025 46.05213919 -21.58611954 40.65736823 -19.6875 35.0625 C-19.33945312 34.00675781 -18.99140625 32.95101562 -18.6328125 31.86328125 C-17.57937612 28.67566079 -16.50959475 25.49388786 -15.4375 22.3125 C-14.68152681 20.04713009 -13.92628497 17.78151597 -13.171875 15.515625 C-12.59375 13.78125 -12.015625 12.046875 -11.4375 10.3125 C-13.4175 10.3125 -15.3975 10.3125 -17.4375 10.3125 C-18.1875 8.5625 -18.1875 8.5625 -18.4375 6.3125 C-13.8967507 0.13708095 -7.04671666 -0.03115259 0 0 Z M3.5625 14.3125 C-0.85795982 23.96249729 -0.85795982 23.96249729 -2.4375 34.3125 C1.99603442 32.95780893 4.14519455 31.28378752 6.5625 27.3125 C7.80272311 23.1446754 8.01809707 20.30652997 6.1875 16.3125 C5.65125 15.6525 5.115 14.9925 4.5625 14.3125 C4.2325 14.3125 3.9025 14.3125 3.5625 14.3125 Z "
    transform="translate(60.4375,17.6875)" />
  <path
    d="M0 0 C2.89847825 1.99672946 4.57932724 3.58774145 5.6015625 7.01953125 C7.04210699 16.58407666 4.18506444 23.65810615 -1.12890625 31.53515625 C-3.53748357 34.70804202 -5.64890465 36.84040522 -9 39 C-10.32 39 -11.64 39 -13 39 C-13.33 40.65 -13.66 42.3 -14 44 C-13.236875 43.690625 -12.47375 43.38125 -11.6875 43.0625 C-9.81210323 42.32106407 -7.91315348 41.63771783 -6 41 C-5.690625 40.360625 -5.38125 39.72125 -5.0625 39.0625 C-3.7657662 36.54531085 -2.5778263 36.03113052 0 35 C0.66 35.66 1.32 36.32 2 37 C1.62793814 41.34072171 -0.22951915 45.07415115 -2 49 C-2.66 49 -3.32 49 -4 49 C-4.20625 49.598125 -4.4125 50.19625 -4.625 50.8125 C-6.63843195 54.01568719 -8.43830904 54.72796751 -12 56 C-17.08427069 56.52125804 -21.54211966 56.75060702 -26 54 C-29.21330241 50.51892239 -30.32345101 47.63755042 -30.5625 43 C-29.96228033 28.25460345 -21.518085 14.44373607 -11.89453125 3.7421875 C-8.2025715 0.34710698 -5.01106809 -0.71586687 0 0 Z M-7 13 C-9.81997381 16.97886716 -11.0380477 21.13865701 -12.1875 25.8125 C-12.36474609 26.50537109 -12.54199219 27.19824219 -12.72460938 27.91210938 C-13.15690974 29.60625944 -13.57945894 31.30289268 -14 33 C-13.34 33 -12.68 33 -12 33 C-8.67600283 26.46495702 -7.0293933 20.24638702 -6 13 C-6.33 13 -6.66 13 -7 13 Z "
    transform="translate(339,18)" />
  <path
    d="M0 0 C3.01373535 3.09304417 3.1353518 5.20371513 3.375 9.4375 C3.87 9.9325 3.87 9.9325 4.375 10.4375 C4.84194021 14.1921064 4.98513056 17.97319513 5.1875 21.75 C5.26419922 22.80896484 5.34089844 23.86792969 5.41992188 24.95898438 C5.50016602 26.48942383 5.50016602 26.48942383 5.58203125 28.05078125 C5.6385083 28.98704346 5.69498535 29.92330566 5.75317383 30.88793945 C5.25643193 34.23685853 3.95285841 35.33105206 1.375 37.4375 C-1.88882646 39.06941323 -4.02842633 38.98612988 -7.625 38.4375 C-9.28433607 36.46271723 -10.41381579 34.48406008 -11.58203125 32.1875 C-11.92621094 31.61 -12.27039063 31.0325 -12.625 30.4375 C-13.285 30.4375 -13.945 30.4375 -14.625 30.4375 C-14.810625 31.015 -14.99625 31.5925 -15.1875 32.1875 C-17.28931913 35.47730386 -20.0642501 37.06476472 -23.625 38.4375 C-27.118782 39.17126154 -30.240464 39.24964125 -33.4296875 37.37890625 C-37.05606019 34.45525171 -38.4676401 32.65141925 -39.0625 28.0625 C-38.93250319 20.11825052 -34.14517889 12.66651349 -28.875 7 C-20.58966638 -0.53069223 -10.81141307 -4.66009184 0 0 Z M-14.625 4.4375 C-21.12288165 12.47964607 -21.12288165 12.47964607 -22.625 22.4375 C-20.645 23.4275 -20.645 23.4275 -18.625 24.4375 C-16.315 22.4575 -14.005 20.4775 -11.625 18.4375 C-12.285 17.7775 -12.945 17.1175 -13.625 16.4375 C-13.6015625 13.8359375 -13.6015625 13.8359375 -13.25 10.8125 C-13.08371094 9.30816406 -13.08371094 9.30816406 -12.9140625 7.7734375 C-12.81867188 7.00257812 -12.72328125 6.23171875 -12.625 5.4375 C-13.285 5.1075 -13.945 4.7775 -14.625 4.4375 Z "
    transform="translate(302.625,35.5625)" />
  <path
    d="M0 0 C3.65563074 3.09322601 3.80588804 6.48141087 4.4375 11.0625 C4.59734375 11.79726563 4.7571875 12.53203125 4.921875 13.2890625 C5.64906838 17.20048142 6.04371742 21.09997444 6.375 25.0625 C6.46845703 25.8565625 6.56191406 26.650625 6.65820312 27.46875 C7.09874568 33.15317004 7.09874568 33.15317004 5.23168945 35.72070312 C2.41224517 38.20255547 0.48222727 39.05643529 -3.25 39.5625 C-6.5625 39.0625 -6.5625 39.0625 -8.4375 37.9375 C-9.95312339 35.41146101 -10.13176954 32.95230979 -10.5625 30.0625 C-11.26117188 30.62839844 -11.95984375 31.19429687 -12.6796875 31.77734375 C-13.58976562 32.51082031 -14.49984375 33.24429688 -15.4375 34 C-16.34242188 34.73089844 -17.24734375 35.46179688 -18.1796875 36.21484375 C-22.20018193 39.33237468 -25.57403682 39.5891132 -30.5625 39.0625 C-33.66830832 37.77966613 -35.08194142 36.78333786 -36.9375 34 C-38.56849519 26.3343226 -36.57292541 19.61538378 -32.5625 13.0625 C-31.9025 12.0725 -31.2425 11.0825 -30.5625 10.0625 C-29.9025 10.0625 -29.2425 10.0625 -28.5625 10.0625 C-28.376875 9.505625 -28.19125 8.94875 -28 8.375 C-22.06249119 -1.1766446 -10.05902044 -2.64711064 0 0 Z M-13.5625 5.0625 C-17.50404146 9.3236259 -20.31791072 13.30770187 -21.5625 19.0625 C-21.36685934 22.4282319 -21.36685934 22.4282319 -20.5625 25.0625 C-16.62576356 23.75025452 -14.33530706 22.14339673 -11.5625 19.0625 C-11.8925 18.4025 -12.2225 17.7425 -12.5625 17.0625 C-13.2225 17.0625 -13.8825 17.0625 -14.5625 17.0625 C-14.0675 16.175625 -13.5725 15.28875 -13.0625 14.375 C-11.61871326 11.18663762 -11.26090078 9.48062454 -11.5625 6.0625 C-12.2225 5.7325 -12.8825 5.4025 -13.5625 5.0625 Z "
    transform="translate(478.5625,34.9375)" />
  <path
    d="M0 0 C2.60731623 2.76995508 3.44738179 5.03769328 3.94921875 8.765625 C4.07490234 9.65507813 4.20058594 10.54453125 4.33007812 11.4609375 C4.44802734 12.38132812 4.56597656 13.30171875 4.6875 14.25 C4.81705078 15.18585937 4.94660156 16.12171875 5.08007812 17.0859375 C5.39739113 19.38939489 5.70362106 21.69377156 6 24 C6.31453125 23.23816406 6.6290625 22.47632812 6.953125 21.69140625 C7.84282671 19.54486687 8.73762736 17.40043592 9.63671875 15.2578125 C10.46485043 13.27883881 11.28281515 11.29551461 12.08203125 9.3046875 C15.25086852 1.65402859 15.25086852 1.65402859 19 0 C22.25 -0.1875 22.25 -0.1875 25 0 C27.89103268 9.80041897 19.59068456 22.67459238 15.05078125 31.3515625 C12.52184012 35.98537362 9.52956349 40.07729207 6 44 C4.7934375 45.36125 4.7934375 45.36125 3.5625 46.75 C-0.74482838 50.53204443 -4.67351465 53.79227809 -10.5 54.3125 C-11.325 54.209375 -12.15 54.10625 -13 54 C-13.66964286 46.23214286 -13.66964286 46.23214286 -10.6875 42.625 C-8 40 -8 40 -5 38 C-6.37311241 33.53738465 -8.13345573 29.37332163 -10.09765625 25.1484375 C-11.89400595 20.8714144 -12.16087828 17.14282761 -12.1875 12.5 C-12.20167969 11.3759375 -12.21585938 10.251875 -12.23046875 9.09375 C-12.00767902 6.10308112 -11.62738344 4.47871926 -10 2 C-6.79535396 -0.28903289 -3.86068649 -0.49285359 0 0 Z "
    transform="translate(525,35)" />
  <path
    d="M0 0 C2.521619 2.21596821 3.31747263 3.53437957 4.0625 6.8125 C3.98454008 11.17825536 3.5210578 13.22656503 0.8125 16.6875 C-1.94568413 18.8188241 -3.51171081 19.51886093 -6.9375 19.8125 C-6.29941406 20.08964844 -5.66132813 20.36679687 -5.00390625 20.65234375 C-4.17761719 21.01457031 -3.35132813 21.37679687 -2.5 21.75 C-1.67628906 22.10964844 -0.85257813 22.46929687 -0.00390625 22.83984375 C2.0625 23.8125 2.0625 23.8125 3.0625 24.8125 C3.46229813 28.89044091 3.34384034 31.27146089 1.4375 34.9375 C-3.16080641 40.50387092 -8.42259887 45.30879674 -15.80859375 46.1328125 C-20.52691309 46.3060678 -23.90477477 46.35923689 -28.125 44.125 C-30.21847911 41.45400941 -31.01863985 40.2203736 -30.9375 36.8125 C-28.83549422 32.9198967 -26.66311333 30.20753714 -22.9375 27.8125 C-23.741875 27.35875 -24.54625 26.905 -25.375 26.4375 C-27.9375 24.8125 -27.9375 24.8125 -28.9375 22.8125 C-29.44797648 16.78887753 -28.8417264 12.64112541 -24.9375 7.8125 C-17.88411599 0.56768803 -10.1344846 -4.09691931 0 0 Z M-9.9375 4.8125 C-13.63160263 10.36361258 -13.63160263 10.36361258 -13.9375 16.8125 C-13.2775 17.4725 -12.6175 18.1325 -11.9375 18.8125 C-10.9475 18.4825 -9.9575 18.1525 -8.9375 17.8125 C-8.9375 13.5225 -8.9375 9.2325 -8.9375 4.8125 C-9.2675 4.8125 -9.5975 4.8125 -9.9375 4.8125 Z M-16.9375 29.8125 C-17.30029456 31.10176992 -17.65246698 32.39403272 -18 33.6875 C-18.19722656 34.40679687 -18.39445313 35.12609375 -18.59765625 35.8671875 C-19.14882607 37.88523593 -19.14882607 37.88523593 -17.9375 39.8125 C-15.88913118 39.24887698 -15.88913118 39.24887698 -13.9375 37.8125 C-13.12165432 34.75341587 -13.12165432 34.75341587 -12.9375 31.8125 C-14.2575 31.1525 -15.5775 30.4925 -16.9375 29.8125 Z "
    transform="translate(174.9375,35.1875)" />
  <path
    d="M0 0 C1.051875 0.268125 2.10375 0.53625 3.1875 0.8125 C3.5175 4.1125 3.8475 7.4125 4.1875 10.8125 C4.8475 10.8125 5.5075 10.8125 6.1875 10.8125 C6.1875 10.1525 6.1875 9.4925 6.1875 8.8125 C9.46825695 5.52177114 12.37502574 3.90573475 17 3.375 C20.1875 3.8125 20.1875 3.8125 22.1875 5.8125 C22.49047852 8.27099609 22.49047852 8.27099609 22.56640625 11.3359375 C22.60056641 12.439375 22.63472656 13.5428125 22.66992188 14.6796875 C22.69634766 15.83726563 22.72277344 16.99484375 22.75 18.1875 C22.81003429 20.46624821 22.87368762 22.7449047 22.94140625 25.0234375 C22.96533447 26.03712402 22.9892627 27.05081055 23.01391602 28.09521484 C23.16628348 30.48037638 23.51194251 32.52887744 24.1875 34.8125 C21.29434686 37.61798184 19.6693175 38.74487649 15.625 39.3125 C12.1875 38.8125 12.1875 38.8125 9.9375 37.4375 C7.34261941 33.54517911 6.32238324 29.31764257 5.1875 24.8125 C4.39085937 25.823125 3.59421875 26.83375 2.7734375 27.875 C1.70406426 29.18826538 0.63369948 30.50072381 -0.4375 31.8125 C-0.95957031 32.48023438 -1.48164063 33.14796875 -2.01953125 33.8359375 C-6.02527021 38.68238711 -6.02527021 38.68238711 -10.09765625 39.35546875 C-12.8125 38.8125 -12.8125 38.8125 -14.625 37.125 C-17.34521991 31.82772965 -16.62249172 27.64871529 -15.125 22.0625 C-14.93929443 21.35311279 -14.75358887 20.64372559 -14.56225586 19.9128418 C-9.05321507 -0.44524009 -9.05321507 -0.44524009 0 0 Z "
    transform="translate(239.8125,35.1875)" />
  <path
    d="M0 0 C0.99386719 0.00902344 1.98773438 0.01804688 3.01171875 0.02734375 C4.15060547 0.04474609 4.15060547 0.04474609 5.3125 0.0625 C5.42851562 0.69542969 5.54453125 1.32835937 5.6640625 1.98046875 C6.12887919 4.31850557 6.12887919 4.31850557 8.6875 5.375 C12.35304585 7.73142233 13.02936676 9.94296697 14.3125 14.0625 C14.90172012 20.15110789 14.18122945 25.58859928 11.3125 31.0625 C6.94861351 36.24954854 1.26512159 39.62028681 -5.515625 40.37890625 C-13.64731832 40.6955928 -19.124982 39.35097815 -25.125 33.8125 C-27.70525113 29.27125801 -28.33411641 25.523446 -27.0234375 20.53515625 C-23.42159226 10.79846077 -17.7532258 5.77975054 -8.6875 1.0625 C-5.53819107 0.01273036 -3.29935544 -0.03881595 0 0 Z M-5.6875 8.0625 C-10.09031405 13.19911639 -12.19665433 17.34026771 -12.00390625 24.125 C-11.47752329 27.34828331 -10.11302772 28.96474629 -7.6875 31.0625 C-5.1875 31.89583333 -5.1875 31.89583333 -2.6875 31.0625 C0.60545631 28.21453779 1.25683317 26.45216779 1.875 22.125 C1.65298464 17.40939375 -0.50209536 15.39959057 -3.6875 12.0625 C-5 9.6875 -5 9.6875 -5.6875 8.0625 Z "
    transform="translate(207.6875,33.9375)" />
  <path
    d="M0 0 C1.5625 1.125 1.5625 1.125 2.5625 3.125 C3.52182599 11.14222431 2.13134952 16.51648551 -2.4375 23.125 C-0.7875 23.785 0.8625 24.445 2.5625 25.125 C2.19483839 27.86739396 1.71404214 28.97664822 -0.29296875 30.94140625 C-7.10712119 36.04346009 -12.24672383 39.80241289 -21.02734375 39.55078125 C-25.03486369 38.84280771 -26.72725403 37.11321991 -29.4375 34.125 C-31.92418073 26.66495781 -30.11238365 20.99019059 -26.984375 14.03125 C-23.56507423 7.60710915 -19.22568166 2.69879428 -12.48828125 -0.2578125 C-8.21232004 -1.54467321 -4.24593172 -1.52418062 0 0 Z M-10.4375 9.125 C-11.30330287 11.05732821 -12.15479941 12.99607194 -13 14.9375 C-13.47566406 16.01644531 -13.95132813 17.09539063 -14.44140625 18.20703125 C-15.77027223 21.13627243 -15.77027223 21.13627243 -14.4375 24.125 C-10.68319762 18.96283423 -8.76668164 15.56485624 -9.4375 9.125 C-9.7675 9.125 -10.0975 9.125 -10.4375 9.125 Z "
    transform="translate(114.4375,34.875)" />
  <path
    d="M0 0 C1.4540625 0.0309375 1.4540625 0.0309375 2.9375 0.0625 C5.15477852 5.11296775 4.9277977 7.94459163 2.9375 13.0625 C1.3125 15.5 1.3125 15.5 -0.0625 17.0625 C0.411875 17.59875 0.88625 18.135 1.375 18.6875 C4.73887745 23.80059373 3.91418066 29.01811821 2.75 34.75 C2.61343994 35.44754395 2.47687988 36.14508789 2.33618164 36.86376953 C-0.72612659 51.72612659 -0.72612659 51.72612659 -5.0625 56.0625 C-8.8850948 55.99299828 -11.1962766 55.90078071 -14 53.1875 C-17.41260788 43.15041799 -14.03085217 32.50310307 -10.0625 23.0625 C-8.81217449 20.66508687 -7.46550476 18.37685827 -6.0625 16.0625 C-6.7225 15.0725 -7.3825 14.0825 -8.0625 13.0625 C-7.74825081 7.40601452 -6.61609114 0.13502227 0 0 Z "
    transform="translate(436.0625,17.9375)" />
  <path
    d="M0 0 C0.99 0 1.98 0 3 0 C5.625 0.375 5.625 0.375 8 1 C10.11664217 5.23328435 9.56727164 10.89100237 8.36328125 15.3671875 C7.38171211 17.98151312 6.24867454 20.50265093 5 23 C3.68 22.67 2.36 22.34 1 22 C0.90203125 22.80824219 0.8040625 23.61648437 0.703125 24.44921875 C-0.8003799 35.19409428 -0.8003799 35.19409428 -5 39 C-7.76250036 40.38125018 -9.94731099 40.19079306 -13 40 C-15.51720816 37.48279184 -15.71703124 35.43027078 -16.03125 31.95703125 C-15.93314174 22.673537 -13.85010119 11.01818075 -9 3 C-5.87016879 0.21792782 -4.17614385 -0.32124183 0 0 Z "
    transform="translate(134,34)" />
  <path
    d="M0 0 C1.5159375 0.061875 1.5159375 0.061875 3.0625 0.125 C4.0525 0.125 5.0425 0.125 6.0625 0.125 C10.8625 0.925 10.8625 0.925 12.0625 2.125 C12.66307084 9.34339952 12.4767126 15.66238329 9.0625 22.125 C6.953125 22.83203125 6.953125 22.83203125 5.0625 23.125 C4.7325 22.465 4.4025 21.805 4.0625 21.125 C3.98773438 22.07761719 3.91296875 23.03023437 3.8359375 24.01171875 C2.62732262 35.54095677 2.62732262 35.54095677 -0.6875 38.5 C-4.18507432 40.24878716 -6.09349598 40.82390982 -9.9375 40.125 C-13.46598481 34.83227278 -12.62666358 28.17800629 -11.58447266 22.04882812 C-7.08623925 0.3015421 -7.08623925 0.3015421 0 0 Z "
    transform="translate(497.9375,33.875)" />
  <path
    d="M0 0 C1.98 0 3.96 0 6 0 C8.89103268 9.80041897 0.59068456 22.67459238 -3.94921875 31.3515625 C-6.47815988 35.98537362 -9.47043651 40.07729207 -13 44 C-14.2065625 45.36125 -14.2065625 45.36125 -15.4375 46.75 C-19.74482838 50.53204443 -23.67351465 53.79227809 -29.5 54.3125 C-30.325 54.209375 -31.15 54.10625 -32 54 C-29.42019863 52.28013242 -27.12838519 51.17083119 -24.3125 49.9375 C-10.25180551 42.87654166 -3.6829571 26.38048386 1.87109375 12.47265625 C3.01094502 8.96633175 3.59353218 5.65821034 4 2 C2.35 2 0.7 2 -1 2 C-0.67 1.34 -0.34 0.68 0 0 Z "
    transform="translate(544,35)" />
  <path
    d="M0 0 C0.66 0.66 1.32 1.32 2 2 C0.5459375 1.9071875 0.5459375 1.9071875 -0.9375 1.8125 C-7.73940001 1.82629696 -14.17237436 4.17237436 -19 9 C-22.35525203 13.19406503 -24.09895438 16.55750925 -24 22 C-20.89425693 26.45156507 -16.88624901 28.17097728 -11.98828125 30.10546875 C-10 31 -10 31 -8 33 C-8.33 33.99 -8.66 34.98 -9 36 C-9.70125 35.21625 -10.4025 34.4325 -11.125 33.625 C-14.15849487 30.8552873 -16.12353928 30.13063438 -20 29 C-24.77272727 26.45454545 -24.77272727 26.45454545 -26 24 C-26.51047648 17.97637753 -25.9042264 13.82862541 -22 9 C-15.43938946 2.26133531 -9.62255432 -1.28552789 0 0 Z "
    transform="translate(172,34)" />
  <path
    d="M0 0 C-3 2 -3 2 -5.6875 3.0625 C-12.04594893 6.78159277 -17.41015098 12.75230614 -19.59765625 19.88671875 C-20.56119986 24.9476614 -21.16724387 29.87773841 -18.625 34.5 C-14.65880571 36.76639674 -10.48432386 37.34960188 -6 38 C-6 38.33 -6 38.66 -6 39 C-15.67688652 39.86059267 -15.67688652 39.86059267 -19.5625 36.6875 C-22.79856298 33.11953313 -23.41914662 30.22601248 -23.33984375 25.44140625 C-22.12614884 16.72233365 -17.54298584 8.78858392 -11 3 C-7.18401446 0.55776926 -4.52423668 -0.39919735 0 0 Z "
    transform="translate(107,35)" />
  <path
    d="M0 0 C0.66 0 1.32 0 2 0 C-0.38497107 9.1344164 -3.24303463 18.07712231 -6.21484375 27.03515625 C-7.9537479 32.3690982 -9.47256487 37.40599103 -10 43 C-8.02 43.66 -6.04 44.32 -4 45 C-4 45.33 -4 45.66 -4 46 C-6.33294775 46.04241723 -8.66702567 46.04092937 -11 46 C-12 45 -12 45 -12.296875 41.703125 C-12.21722025 35.73963919 -10.14861954 30.34486823 -8.25 24.75 C-7.90195312 23.69425781 -7.55390625 22.63851562 -7.1953125 21.55078125 C-6.14187612 18.36316079 -5.07209475 15.18138786 -4 12 C-3.24402681 9.73463009 -2.48878497 7.46901597 -1.734375 5.203125 C-1.15625 3.46875 -0.578125 1.734375 0 0 Z "
    transform="translate(49,28)" />
  <path
    d="M0 0 C0.495 0.99 0.495 0.99 1 2 C-0.299375 1.938125 -1.59875 1.87625 -2.9375 1.8125 C-11.92766014 1.88284554 -17.47490035 4.85340354 -24.0546875 10.8671875 C-27.3621556 14.49344771 -29.30172442 18.42771959 -31 23 C-32.00900158 20.37780428 -32.11416951 19.28948419 -31.06640625 16.6328125 C-23.67700853 4.31075189 -14.36877171 -0.70154943 0 0 Z "
    transform="translate(213,34)" />
  <path
    d="M0 0 C0.33 0.99 0.66 1.98 1 3 C-3.71324466 10.81637468 -10.66878482 18.10235547 -19 22 C-22.5 22.3125 -22.5 22.3125 -25 22 C-22.42019863 20.28013242 -20.12838519 19.17083119 -17.3125 17.9375 C-9.47413329 14.06980957 -4.50086347 7.31390314 0 0 Z "
    transform="translate(537,67)" />
  <path
    d="M0 0 C0.71994141 -0.01385742 1.43988281 -0.02771484 2.18164062 -0.04199219 C7.29031527 0.00241075 10.86291838 1.10273738 15.4375 3.375 C13.4375 4.375 13.4375 4.375 9.6875 3.375 C1.88439314 1.50022757 -7.26673325 1.90322134 -14.5625 5.375 C-15.5525 6.035 -16.5425 6.695 -17.5625 7.375 C-17.25 5.484375 -17.25 5.484375 -16.5625 3.375 C-11.21597334 0.25619278 -6.05403293 0.07051721 0 0 Z "
    transform="translate(60.5625,17.625)" />
  <path
    d="M0 0 C3.76855942 3.28541077 3.91371606 7.31160621 4.4375 12.125 C3.1175 11.465 1.7975 10.805 0.4375 10.125 C0.685 9.5475 0.9325 8.97 1.1875 8.375 C1.69288571 6.00672824 1.69288571 6.00672824 0 3.9375 C-4.25537064 0.9276037 -8.3103626 0.80097453 -13.3046875 1.51953125 C-15.74125338 1.99925173 -18.15238931 2.52741108 -20.5625 3.125 C-19.5625 1.125 -19.5625 1.125 -17.33984375 0.01953125 C-11.6255544 -1.82093607 -5.7742662 -1.41824082 0 0 Z "
    transform="translate(478.5625,34.875)" />
  <path
    d="M0 0 C0.33 0.99 0.66 1.98 1 3 C-0.78975156 4.48148332 -2.58186057 5.96011906 -4.375 7.4375 C-5.87160156 8.67306641 -5.87160156 8.67306641 -7.3984375 9.93359375 C-10.54682557 12.43434043 -12.07108522 13.15138865 -16 13.1875 C-17.051875 13.20876953 -17.051875 13.20876953 -18.125 13.23046875 C-20 13 -20 13 -22 11 C-21.01 11.0825 -20.02 11.165 -19 11.25 C-12.34333175 11.20973789 -7.58696715 7.80922339 -3 3.25 C-1.98955506 2.17640225 -0.98558535 1.0964637 0 0 Z "
    transform="translate(468,61)" />
  <path
    d="M0 0 C0.66 0 1.32 0 2 0 C1.00147198 2.89573124 0.03905844 3.97265909 -2.5 5.75 C-6.98073917 7.35026399 -11.28571008 7.82763782 -16 7 C-17.80078125 5.4765625 -17.80078125 5.4765625 -19 4 C-18.443125 4.10699219 -17.88625 4.21398437 -17.3125 4.32421875 C-11.23218572 5.27940326 -7.56798321 4.63746573 -2 2 C-1.34 1.34 -0.68 0.68 0 0 Z "
    transform="translate(333,67)" />
  <path
    d="M0 0 C0.33 0 0.66 0 1 0 C1.47407856 6.51858013 0.38982147 11.34617369 -3 17 C-3.66 17.33 -4.32 17.66 -5 18 C-4.33795284 13.89530764 -3.07572882 10.09847764 -1.71875 6.18359375 C-1.0450516 4.13686873 -0.49438397 2.09637817 0 0 Z "
    transform="translate(106,42)" />
  <path
    d="M0 0 C1.231394 3.69418201 0.64432764 6.2056261 0 10 C1.98 10.66 3.96 11.32 6 12 C6 12.33 6 12.66 6 13 C3.66705225 13.04241723 1.33297433 13.04092937 -1 13 C-2 12 -2 12 -2.1875 8.1875 C-2.1585691 4.96459799 -1.82970185 2.74455277 0 0 Z "
    transform="translate(39,61)" />
  <path
    d="M0 0 C0.66 0.33 1.32 0.66 2 1 C1.566875 1.37511719 1.13375 1.75023438 0.6875 2.13671875 C-2.98563624 5.35744333 -2.98563624 5.35744333 -4.375 9.875 C-4.25125 10.57625 -4.1275 11.2775 -4 12 C-4.99 12.495 -4.99 12.495 -6 13 C-6.75 10.875 -6.75 10.875 -7 8 C-4.99323374 4.3448186 -3.48211875 2.3214125 0 0 Z "
    transform="translate(151,64)" />
  <path
    d="M0 0 C-2.16033504 1.12017372 -4.29327313 2.11444805 -6.5625 3 C-9.19059626 3.98451106 -9.19059626 3.98451106 -12 6 C-11.66411682 3.48087612 -11.42645046 2.32803881 -9.375 0.75 C-6.1989627 -0.25295915 -3.30771122 -0.12721966 0 0 Z "
    transform="translate(55,19)" />
  <path d="M0 0 C0.66 0 1.32 0 2 0 C2 1.98 2 3.96 2 6 C0.35 5.67 -1.3 5.34 -3 5 C-1.625 2.5 -1.625 2.5 0 0 Z "
    transform="translate(291,61)" />
</svg>